<svg width="40" height="40" viewBox="0 0 24 24" fill="none" xmlns="http://www.w3.org/2000/svg">
  <path d="M12 2C10.5 2 9.5 3.5 9 5C8.5 6.5 7.5 7 6 7C4.5 7 3 8.5 3 10.5C3 13.5 5 16 8 16C9 16 10 16.5 10.5 17.5C11 18.5 11.5 22 12 22C12.5 22 13 18.5 13.5 17.5C14 16.5 15 16 16 16C19 16 21 13.5 21 10.5C21 8.5 19.5 7 18 7C16.5 7 15.5 6.5 15 5C14.5 3.5 13.5 2 12 2Z" stroke="#0D9488" stroke-width="2" stroke-linecap="round" stroke-linejoin="round" fill="rgba(13,148,136,0.1)"/>
  <path d="M12 9V13M10 11H14" stroke="#06B6D4" stroke-width="1.5" stroke-linecap="round"/>
</svg>
